<svg xmlns="http://www.w3.org/2000/svg">
    <symbol id="" viewBox="0 0 1024 1024">
      <path d="M882.648668 457.769888c-17.254989 0-31.235398 13.985526-31.235398 31.235398 0 109.47125-52.130288 207.711715-146.761552 276.624225L530.204617 892.537899c-10.320043 7.544837-25.581632 7.798617-36.665061-0.193405L319.182506 765.633604c-94.641497-68.916603-146.771785-167.158091-146.771785-276.628318 0-17.249873-13.980409-31.235398-31.235398-31.235398s-31.235398 13.985526-31.235398 31.235398c0 129.969097 61.251016 246.146073 172.495656 327.146898L456.905194 942.949033c16.258289 11.722996 35.282574 17.916045 55.007825 17.916045 20.081361 0 39.166021-6.192026 55.109132-17.86488l174.386726-126.863363c111.225197-80.986499 172.47519-197.162452 172.47519-327.131549C913.884067 471.755414 899.903657 457.769888 882.648668 457.769888z" p-id="1426"/><path d="M850.193489 178.228217 547.733852 71.131037c-0.345877-0.121773-0.701988-0.243547-1.057075-0.356111-22.450315-7.04137-47.168276-7.04137-69.659523 0-0.356111 0.116657-0.712221 0.234337-1.067308 0.361227l-301.392328 106.782002c-38.647205 12.339026-64.615647 47.783283-64.615647 88.199785l0 119.556956c0 17.249873 13.980409 31.235398 31.235398 31.235398s31.235398-13.985526 31.235398-31.235398L172.412768 266.11794c0-13.121855 8.500605-24.651446 22.073738-29.003568l301.727972-106.883309c10.116405-3.070942 21.169135-3.070942 31.266098 0l302.795281 107.198487c12.638855 4.036943 21.138436 15.566534 21.138436 28.688389l0 119.556956c0 17.249873 13.980409 31.235398 31.235398 31.235398s31.235398-13.985526 31.235398-31.235398L913.88509 266.11794C913.884067 225.701438 887.915625 190.256158 850.193489 178.228217z" p-id="1427"/><path d="M400.427902 228.710982c-17.254989 0-31.235398 13.985526-31.235398 31.235398l0 30.473035c0 17.249873 13.980409 31.235398 31.235398 31.235398 17.254989 0 31.235398-13.985526 31.235398-31.235398l0-30.473035C431.6633 242.696508 417.682891 228.710982 400.427902 228.710982z" p-id="1428"/><path d="M623.397113 228.710982c-17.254989 0-31.235398 13.985526-31.235398 31.235398l0 30.473035c0 17.249873 13.980409 31.235398 31.235398 31.235398s31.235398-13.985526 31.235398-31.235398l0-30.473035C654.632511 242.696508 640.651079 228.710982 623.397113 228.710982z" p-id="1429"/><path d="M545.781384 378.919029c-0.132006 0.198521-13.615089 19.766183-34.183544 19.766183-19.990287 0-32.434713-18.11866-33.268708-19.374256-9.191336-14.422478-28.296463-18.815531-42.836621-9.761318-14.651698 9.105379-19.156292 28.368094-10.045797 43.019793 11.215436 18.042935 41.97295 48.586578 86.151126 48.586578 43.965328 0 75.108628-30.315446 86.588077-48.225351 9.222035-14.392802 5.042853-33.355689-9.242502-42.75578C574.668295 360.749204 555.369763 364.760564 545.781384 378.919029z" p-id="1430"/><path d="M397.382543 675.761738l83.294055 0 0 83.294055c0 17.249873 13.980409 31.235398 31.235398 31.235398 17.254989 0 31.235398-13.985526 31.235398-31.235398l0-83.294055 83.294055 0c17.254989 0 31.235398-13.985526 31.235398-31.235398 0-17.249873-13.980409-31.235398-31.235398-31.235398l-83.294055 0 0-83.294055c0-17.249873-13.980409-31.235398-31.235398-31.235398-17.254989 0-31.235398 13.985526-31.235398 31.235398l0 83.294055-83.294055 0c-17.254989 0-31.235398 13.985526-31.235398 31.235398C366.147144 661.775188 380.128577 675.761738 397.382543 675.761738z" p-id="1431"/>
    </symbol>
    <symbol id="" viewBox="0 0 200 200">
      <path d="M476.7 493.6c27.2-77.9 100.6-130.1 183.3-130.1 21.2 0 42.1 3.5 62.3 10.3 34.8 11.8 64.6 32.6 87 59.6 14-3.2 28.4-4.8 43.1-4.8 2.2 0 4.3 0 6.5 0.1C870.2 319.8 837 249.8 837 249.8 790.3 139.7 663.1 88.3 552.9 134.9 475.5 167.6 427.1 240 421.2 318.3 360.8 268 275 252.4 197.7 285.1 87.5 331.8 36 458.8 82.7 568.9c0 0 49.5 140.3 231.4 211.3 111.4 43.5 208.2 65.2 269.6 75.8-23.2-29.4-55.8-75.4-86.2-135-57.5-113-28.4-207-20.8-227.4z m412.2 20.9c-41.9-14.2-86.3-2.7-116 26.1-6.1-40.9-34.4-77-76.3-91.2-59.6-20.1-124.4 11.8-144.6 71.4 0 0-29.7 72.5 16.9 164 33.4 65.5 69.3 112.3 88.9 135.5 9 10.6 23.1 15.1 36.6 11.8 31.4-7.7 92.4-25.1 153.1-55.2C939.1 731.3 960.4 659 960.4 659c20.2-59.6-11.8-124.3-71.5-144.5z" fill="#272636"/></g></g>
    </symbol>
    <symbol id="" viewBox="0 0 1024 1024">
      <path d="M932.206364 829.509401l-3.865028 0c-24.676006-40.932248-29.492708-79.71146-14.285355-114.838492 12.843516-29.668717 35.804461-46.334281 35.951817-46.442752 7.797593-5.499248 10.780531-15.592117 7.197936-24.436552-3.582595-8.841366-12.765745-14.034645-22.212908-12.546757-1.174756 0.184195-14.450107 2.337231-35.897581 7.705496-27.454282-59.951417-31.835056-120.839159-12.980639-181.054589 14.582113-46.576805 38.340213-75.41562 38.540781-75.656097 5.098111-6.048763 6.269797-14.487969 3.007497-21.697161-3.2623-7.208169-10.375302-11.897981-18.284435-12.060687-1.314948-0.025583-32.613792-0.587378-71.116711 5.421476-41.001833 6.399757-74.118068 17.605983-98.912777 33.378202-2.505054-4.242627-5.069459-8.488325-7.722892-12.736069-82.815147-132.60718-211.481575-208.058616-304.836777-248.003374-100.68105-43.078121-181.13236-54.989405-184.509271-55.476499-9.012258-1.293459-17.761526 3.488451-21.561062 11.744485-3.801583 8.253988-1.711991 18.036795 5.118578 24.031323 0.769526 0.673335 77.426417 68.86953 126.019135 192.957687 6.451946 16.477276 12.091386 33.213449 16.995069 50.158377-88.49859-66.74924-186.305173-67.665099-191.173041-67.665099-8.115841 0-15.45397 4.799306-18.747993 12.218276-3.294023 7.417947-1.89107 16.099676 3.554966 22.12081 15.280008 16.895809 50.076512 67.946508 72.418356 140.232858 16.362666 52.93563 24.085558 109.444645 22.954805 167.952176-0.078795 4.097318-0.217964 8.209986-0.384763 12.328793-90.205465-42.514279-165.139108-54.626131-168.467923-55.148018-8.893554-1.404999-17.665335 3.168156-21.623483 11.255345-3.960195 8.090259-2.185782 17.605983 4.374634 23.775496 0.832971 0.783853 79.19162 76.380598 108.509343 212.480322l-89.807399 0c-11.338233 0-21.352307 9.607822-21.352307 20.946055l0 86.227874c0 11.338233 10.015098 19.716041 21.352307 19.716041l841.747119 0c11.338233 0 20.013823-8.378831 20.013823-19.716041l0-86.227874C952.219163 839.117223 943.543573 829.509401 932.206364 829.509401zM820.325227 707.560978c22.922059-9.203616 44.112684-16.19996 62.11571-21.532409-1.812275 3.325745-3.552919 6.649444-5.187139 10.282181-13.657045 30.340005-22.094204 76.917834 4.64888 133.199675l-78.94091 0C809.702286 804.950052 818.35127 761.166873 820.325227 707.560978zM869.989347 391.304104c-7.606235 13.94664-15.807011 31.651884-22.48306 52.506864-15.294334 47.774073-25.185612 121.667014 11.676947 206.448956-11.997242 3.777023-25.051559 8.227382-38.888705 13.440104-2.532683-67.058278-17.09433-151.937434-61.256132-240.244666C788.951683 403.473261 834.899154 394.672828 869.989347 391.304104zM298.501488 125.4512c30.296003 8.151657 69.416999 20.564361 112.133893 38.84368 87.950098 37.630039 208.988802 108.428501 286.164508 232.001935 72.722278 116.448152 85.051071 231.278457 82.584903 307.279409-1.922792 59.279105-12.870122 105.468077-19.035542 125.934201L362.883821 829.510424c44.366464-103.353926 67.909669-203.241914 70.009494-300.532751 1.850138-85.674265-12.817933-168.45769-43.590797-246.25352C361.694739 212.938764 326.326207 160.250774 298.501488 125.4512zM221.779106 328.832284c43.22957 8.794293 110.101607 31.719422 162.744571 91.338265 5.698792 35.786041 8.170077 72.136947 7.28901 109.273752-2.294252 96.653317-27.139104 196.712197-73.852008 300.066123L263.433808 829.510424c22.440082-70.608128 34.395368-139.110291 35.506678-205.76641 1.052982-63.157435-7.534604-124.124995-25.524327-181.413769C257.817903 392.657938 237.910505 354.654392 221.779106 328.832284zM254.088976 681.154561c-5.359055 47.390333-16.281825 95.945189-32.634258 145.125285-17.476023-85.808318-52.624545-149.647275-80.680531-189.663664C171.442674 645.665279 211.504088 659.837046 254.088976 681.154561zM910.263609 915.467121l-800.225447 0 0-45.025473 800.225447 0L910.263609 915.467121z" p-id="2126"/>
    </symbol>
    <symbol id="" viewBox="0 0 200 200">
      <g class="transform-group"><g transform="scale(0.1953125, 0.1953125)"><path d="M437.5 369.6c-24.1-24.1-63.6-23.8-88.2 0.8L82.7 637.1c-24.6 24.6-24.9 64-0.8 88.2l186.4 186.4c24.1 24.1 63.6 23.8 88.2-0.8l266.7-266.7c24.6-24.6 24.9-64 0.8-88.2L437.5 369.6z m-16.2 147.9L229.8 709c-15.1 15.1-39.6 15.1-54.7 0-15.1-15.1-15.1-39.6 0-54.7l191.5-191.5c15.1-15.1 39.6-15.1 54.7 0 15.1 15.1 15.1 39.6 0 54.7z m498.1-383.8l-169.8-17.5c-30.2 3.4-47.3 10.5-63.8 27.4L503.4 326l164.2 164.2 282.7-282.7c25.2-25.3 4.3-68.5-30.9-73.8z" fill="#272636"/></g></g>
    </symbol>
    <symbol id="" viewBox="0 0 1024 1024">
      <path d="M928.922574 99.438757l-67.214844 0c-15.159258 0-28.122501 10.878768-30.755468 25.803689l-15.35164 86.96977L222.034932 212.212216c-17.253966 0-31.233352 13.979386-31.233352 31.233352s13.979386 31.233352 31.233352 31.233352l582.540589 0-49.773613 281.97407c-8.103562 37.283138-29.688159 81.4388-86.410022 81.4388l-375.389646 0c-32.819476 0-57.504692-5.947456-76.324316-82.851986-0.11154-0.477884-0.243547-0.945535-0.376577-1.413186l-90.304725-306.293965c-4.89038-16.531512-22.23542-25.986861-38.797631-21.12718-16.541745 4.880147-25.997094 22.245653-21.12718 38.797631l90.101087 305.603233c15.830547 64.286142 44.582381 129.752156 136.829342 129.752156l375.389646 0c74.79959 0 129.97626-49.107441 147.605779-131.348514 0.081864-0.376577 0.152473-0.741897 0.213871-1.118474l71.697949-406.186046 41.014112 0c17.253966 0 31.233352-13.979386 31.233352-31.233352S946.17654 99.438757 928.922574 99.438757z" p-id="1549"/><path d="M361.610828 333.028862c-17.253966 0-31.233352 13.979386-31.233352 31.233352l0 30.470989c0 17.253966 13.979386 31.233352 31.233352 31.233352 17.253966 0 31.233352-13.979386 31.233352-31.233352l0-30.470989C392.84418 347.008248 378.86377 333.028862 361.610828 333.028862z" p-id="1550"/><path d="M605.376691 333.028862c-17.253966 0-31.233352 13.979386-31.233352 31.233352l0 30.470989c0 17.253966 13.979386 31.233352 31.233352 31.233352 17.253966 0 31.233352-13.979386 31.233352-31.233352l0-30.470989C636.610042 347.008248 622.630656 333.028862 605.376691 333.028862z" p-id="1551"/><path d="M560.28982 474.086505c-14.539134-9.292644-33.845853-5.083785-43.149752 9.455349-0.121773 0.193405-13.379729 19.449981-33.968649 19.449981-20.008706 0-32.453133-18.127869-33.287127-19.378349-9.17087-14.407128-28.274974-18.809391-42.824341-9.750061-14.650675 9.099239-19.155269 28.355815-10.044774 43.00649 11.214413 18.047028 41.980113 48.588625 86.156242 48.588625 43.952025 0 75.094302-30.308283 86.572728-48.222281C579.048045 502.717589 574.818721 483.389382 560.28982 474.086505z" p-id="1552"/><path d="M296.093649 739.519854c-51.668777 0-93.700055 42.031279-93.700055 93.700055 0 51.668777 42.031279 93.700055 93.700055 93.700055 51.668777 0 93.700055-42.031279 93.700055-93.700055C389.793704 781.550109 347.762425 739.519854 296.093649 739.519854zM296.093649 864.453261c-17.223267 0-31.233352-14.010085-31.233352-31.233352 0-17.223267 14.010085-31.233352 31.233352-31.233352s31.233352 14.010085 31.233352 31.233352C327.327 850.443176 313.316915 864.453261 296.093649 864.453261z" p-id="1553"/><path d="M670.89387 739.519854c-51.668777 0-93.700055 42.031279-93.700055 93.700055 0 51.668777 42.031279 93.700055 93.700055 93.700055 51.668777 0 93.700055-42.031279 93.700055-93.700055C764.593925 781.550109 722.56367 739.519854 670.89387 739.519854zM670.89387 864.453261c-17.223267 0-31.233352-14.010085-31.233352-31.233352 0-17.223267 14.010085-31.233352 31.233352-31.233352s31.233352 14.010085 31.233352 31.233352C702.127222 850.443176 688.117137 864.453261 670.89387 864.453261z" p-id="1554"/>
    </symbol>
    <symbol id="" viewBox="0 0 1024 1024">
      <path d="M867.388103 458.139302c-16.591887-5.012154-33.967626 4.321422-38.959314 20.821211-9.688663 31.974225-22.997784 62.149479-39.538505 89.701998-57.707306 96.117105-158.449755 151.241586-276.41547 151.241586-117.996414 0-218.759329-55.144948-276.456403-151.282518-16.521279-27.552519-29.80891-57.707306-39.488363-89.620134-5.012154-16.490579-22.438035-25.824155-38.959314-20.821211-16.500812 5.012154-25.824155 22.448268-20.821211 38.959314 11.17348 36.814464 26.545586 71.676459 45.710065 103.619986C245.514693 705.835683 355.673605 771.657808 481.241462 781.072225l0 147.536194c0 17.252943 13.979386 31.232328 31.232328 31.232328s31.232328-13.979386 31.232328-31.232328L543.706119 781.072225c125.523855-9.41544 235.669464-75.217099 298.741965-180.26255 19.174712-31.934317 34.577516-66.836221 45.76123-103.712083C893.211235 480.58757 883.888915 463.151455 867.388103 458.139302z" p-id="1670"/><path d="M881.625362 221.404576c-9.445116-22.174022-31.242562-36.804231-55.836703-37.282115l-9.587356-0.091074c-55.643298 0-106.48729 16.714683-151.333684 35.329646C625.685225 152.107303 589.156264 107.241466 551.081087 79.404468c-2.134617-1.839905-4.443196-3.558036-6.944156-5.164626-17.304108-11.041474-38.928614-12.830213-57.767682-4.818749-5.438872 2.287089-10.502192 5.317099-15.077394 9.03784-37.892005 27.369348-75.661214 73.190953-115.027803 139.631154-44.348044-17.954931-94.358041-34.089399-147.96803-34.089399l-9.445116 0.101307c-24.288173 0.488117-46.076408 15.108093-55.521524 37.261649-21.60404 50.701752-30.449499 111.1331-25.600051 174.757163 1.25048 16.389272 14.935154 28.853142 31.110555 28.853142 0.793062 0 1.596358-0.030699 2.409886-0.091074 17.192567-1.311879 30.073946-16.317641 28.762067-33.520441-4.066619-53.375651 3.009544-103.427604 20.48659-144.816247l8.112772-0.080841c52.034097 0 101.95302 19.652596 148.618852 39.783075 14.700817 6.324032 31.842219 0.539282 39.651069-13.470803 40.168862-72.04178 76.688613-119.195729 111.662149-144.165424 0.731664-0.518816 1.026376-1.341554 1.707898-1.932002 0.945535 0.873903 1.952468 1.697665 2.99931 2.449795 34.740222 25.02086 71.00517 72.469522 110.848621 145.040351 7.807826 14.213723 25.193799 20.079314 40.026622 13.532201 44.998867-19.937075 97.56099-41.206494 151.770636-41.206494l8.559956 0.080841c16.490579 39.060621 23.77038 86.204337 21.055548 136.418996-0.935302 17.222243 12.271488 31.94455 29.493731 32.869618 17.090237 1.209548 31.94455-12.261255 32.869618-29.493731C911.129326 326.387605 902.050554 269.331121 881.625362 221.404576z" p-id="1671"/><path d="M390.593929 332.030116c-17.252943 0-31.232328 13.979386-31.232328 31.232328l0 30.469965c0 17.252943 13.979386 31.232328 31.232328 31.232328 17.252943 0 31.232328-13.979386 31.232328-31.232328l0-30.469965C421.827281 346.009502 407.846872 332.030116 390.593929 332.030116z" p-id="1672"/><path d="M634.363885 332.030116c-17.252943 0-31.232328 13.979386-31.232328 31.232328l0 30.469965c0 17.252943 13.979386 31.232328 31.232328 31.232328s31.232328-13.979386 31.232328-31.232328l0-30.469965C665.597237 346.009502 651.617851 332.030116 634.363885 332.030116z" p-id="1673"/><path d="M589.500095 473.470475c-14.304797-9.404184-33.591049-5.38873-43.157939 8.763594-0.132006 0.193405-13.613042 19.753903-34.170241 19.753903-19.98824 0-32.432667-18.117636-33.265638-19.378349-9.181103-14.416338-28.284183-18.808368-42.832528-9.750061-14.650675 9.099239-19.154245 28.354791-10.044774 43.005466 11.214413 18.046005 41.968857 48.587602 86.143962 48.587602 43.961234 0 75.102489-30.317493 86.570681-48.221258C607.962585 501.836523 603.774193 482.874659 589.500095 473.470475z" p-id="1674"/><path d="M855.131965 756.199745c-10.279111-13.878079-29.819143-16.805758-43.686988-6.557346L603.228771 903.486252c-13.867846 10.248412-16.805758 29.80891-6.557346 43.686988 6.130627 8.28571 15.575744 12.667507 25.142633 12.667507 6.456039 0 12.95301-1.982144 18.544355-6.110161l208.216205-153.844877C862.441441 789.638321 865.380376 770.077823 855.131965 756.199745z" p-id="1675"/><path d="M421.730067 903.486252 213.513862 749.642398c-13.888312-10.248412-33.428344-7.319709-43.686988 6.557346-10.248412 13.878079-7.309476 33.438577 6.557346 43.686988l208.216205 153.844877c5.591345 4.128017 12.088316 6.110161 18.544355 6.110161 9.56689 0 19.012006-4.381797 25.142633-12.667507C438.535825 933.296185 435.597913 913.734664 421.730067 903.486252z" p-id="1676"/>
    </symbol>
</svg>
