<?xml version="1.0" standalone="no"?><!DOCTYPE svg PUBLIC "-//W3C//DTD SVG 1.1//EN" "http://www.w3.org/Graphics/SVG/1.1/DTD/svg11.dtd"><svg width="200" height="200" viewBox="0 0 200 200" version="1.1" xmlns="http://www.w3.org/2000/svg" xmlns:xlink="http://www.w3.org/1999/xlink"><defs><style type="text/css"><![CDATA[

]]></style></defs><g class="transform-group"><g transform="scale(0.1953125, 0.1953125)"><path d="M476.7 493.6c27.2-77.9 100.6-130.1 183.3-130.1 21.2 0 42.1 3.5 62.3 10.3 34.8 11.8 64.6 32.6 87 59.6 14-3.2 28.4-4.8 43.1-4.8 2.2 0 4.3 0 6.5 0.1C870.2 319.8 837 249.8 837 249.8 790.3 139.7 663.1 88.3 552.9 134.9 475.5 167.6 427.1 240 421.2 318.3 360.8 268 275 252.4 197.7 285.1 87.5 331.8 36 458.8 82.7 568.9c0 0 49.5 140.3 231.4 211.3 111.4 43.5 208.2 65.2 269.6 75.8-23.2-29.4-55.8-75.4-86.2-135-57.5-113-28.4-207-20.8-227.4z m412.2 20.9c-41.9-14.2-86.3-2.7-116 26.1-6.1-40.9-34.4-77-76.3-91.2-59.6-20.1-124.4 11.8-144.6 71.4 0 0-29.7 72.5 16.9 164 33.4 65.5 69.3 112.3 88.9 135.5 9 10.6 23.1 15.1 36.6 11.8 31.4-7.7 92.4-25.1 153.1-55.2C939.1 731.3 960.4 659 960.4 659c20.2-59.6-11.8-124.3-71.5-144.5z" fill="#272636"></path></g></g></svg>