<?xml version="1.0" standalone="no"?><!DOCTYPE svg PUBLIC "-//W3C//DTD SVG 1.1//EN" "http://www.w3.org/Graphics/SVG/1.1/DTD/svg11.dtd"><svg width="200" height="200" viewBox="0 0 200 200" version="1.1" xmlns="http://www.w3.org/2000/svg" xmlns:xlink="http://www.w3.org/1999/xlink"><defs><style type="text/css"><![CDATA[

]]></style></defs><g class="transform-group"><g transform="scale(0.1953125, 0.1953125)"><path d="M437.5 369.6c-24.1-24.1-63.6-23.8-88.2 0.8L82.7 637.1c-24.6 24.6-24.9 64-0.8 88.2l186.4 186.4c24.1 24.1 63.6 23.8 88.2-0.8l266.7-266.7c24.6-24.6 24.9-64 0.8-88.2L437.5 369.6z m-16.2 147.9L229.8 709c-15.1 15.1-39.6 15.1-54.7 0-15.1-15.1-15.1-39.6 0-54.7l191.5-191.5c15.1-15.1 39.6-15.1 54.7 0 15.1 15.1 15.1 39.6 0 54.7z m498.1-383.8l-169.8-17.5c-30.2 3.4-47.3 10.5-63.8 27.4L503.4 326l164.2 164.2 282.7-282.7c25.2-25.3 4.3-68.5-30.9-73.8z" fill="#272636"></path></g></g></svg>